999
"DXF R12 Output" (www.mydxf.blogspot.com)
 0 
SECTION
 2 
HEADER
 9 
$ACADVER
 1 
AC1009
 9 
$EXTMIN
 10 
 0 
 20 
 0 
 9 
$EXTMAX
 10 
 8.5 
 20 
 11 
 0 
ENDSEC
 0 
SECTION
 2 
ENTITIES
0
POLYLINE
8
Layer 1
62
7
70
0
10
0.000000
20
0.000000
66
1
0
VERTEX
8
Layer 1
10
82.070152
20
286.495662
70
0
0
VERTEX
8
Layer 1
10
146.790100
20
286.543922
70
0
0
VERTEX
8
Layer 1
10
147.157740
20
247.675335
70
0
0
VERTEX
8
Layer 1
10
142.349150
20
247.393203
70
0
0
VERTEX
8
Layer 1
10
142.378550
20
240.711575
70
0
0
VERTEX
8
Layer 1
10
147.348930
20
240.853162
70
0
0
VERTEX
8
Layer 1
10
147.143080
20
211.584340
70
0
0
VERTEX
8
Layer 1
10
142.466850
20
211.490650
70
0
0
VERTEX
8
Layer 1
10
142.496250
20
205.514872
70
0
0
VERTEX
8
Layer 1
10
146.996060
20
205.421172
70
0
0
VERTEX
8
Layer 1
10
147.025460
20
184.151985
70
0
0
VERTEX
8
Layer 1
10
146.973760
20
171.895555
70
0
0
VERTEX
8
Layer 1
10
82.009718
20
171.884655
70
0
0
VERTEX
8
Layer 1
10
81.983858
20
184.108535
70
0
0
VERTEX
8
Layer 1
10
81.652475
20
205.705499
70
0
0
VERTEX
8
Layer 1
10
87.098786
20
205.987330
70
0
0
VERTEX
8
Layer 1
10
86.898303
20
211.680676
70
0
0
VERTEX
8
Layer 1
10
81.791663
20
211.773776
70
0
0
VERTEX
8
Layer 1
10
81.695563
20
240.664525
70
0
0
VERTEX
8
Layer 1
10
86.800962
20
240.570155
70
0
0
VERTEX
8
Layer 1
10
86.730132
20
247.534285
70
0
0
VERTEX
8
Layer 1
10
81.882801
20
247.580835
70
0
0
VERTEX
8
Layer 1
10
82.070152
20
286.495662
70
0
0
SEQEND
8
Layer 1
0
POLYLINE
8
Layer 1
62
7
70
0
10
0.000000
20
0.000000
66
1
0
VERTEX
8
Layer 1
10
99.072003
20
279.239226
70
0
0
VERTEX
8
Layer 1
10
92.807694
20
279.291866
70
0
0
VERTEX
8
Layer 1
10
92.807694
20
272.237938
70
0
0
VERTEX
8
Layer 1
10
98.966722
20
272.237938
70
0
0
VERTEX
8
Layer 1
10
99.072003
20
279.239226
70
0
0
SEQEND
8
Layer 1
0
POLYLINE
8
Layer 1
62
7
70
0
10
0.000000
20
0.000000
66
1
0
VERTEX
8
Layer 1
10
135.161230
20
279.074417
70
0
0
VERTEX
8
Layer 1
10
128.896920
20
279.127057
70
0
0
VERTEX
8
Layer 1
10
128.896920
20
272.073129
70
0
0
VERTEX
8
Layer 1
10
135.055940
20
272.073129
70
0
0
VERTEX
8
Layer 1
10
135.161230
20
279.074417
70
0
0
SEQEND
8
Layer 1
0
POLYLINE
8
Layer 1
62
7
70
0
10
0.000000
20
0.000000
66
1
0
VERTEX
8
Layer 1
10
335.852620
20
261.476986
70
0
0
VERTEX
8
Layer 1
10
329.588310
20
261.529626
70
0
0
VERTEX
8
Layer 1
10
329.588310
20
254.475698
70
0
0
VERTEX
8
Layer 1
10
335.747330
20
254.475698
70
0
0
VERTEX
8
Layer 1
10
335.852620
20
261.476986
70
0
0
SEQEND
8
Layer 1
0
POLYLINE
8
Layer 1
62
7
70
0
10
0.000000
20
0.000000
66
1
0
VERTEX
8
Layer 1
10
372.315350
20
261.359786
70
0
0
VERTEX
8
Layer 1
10
366.051040
20
261.412426
70
0
0
VERTEX
8
Layer 1
10
366.051040
20
254.358498
70
0
0
VERTEX
8
Layer 1
10
372.210060
20
254.358498
70
0
0
VERTEX
8
Layer 1
10
372.315350
20
261.359786
70
0
0
SEQEND
8
Layer 1
0
POLYLINE
8
Layer 1
62
7
70
0
10
0.000000
20
0.000000
66
1
0
VERTEX
8
Layer 1
10
335.950230
20
221.143120
70
0
0
VERTEX
8
Layer 1
10
329.685920
20
221.195760
70
0
0
VERTEX
8
Layer 1
10
329.685920
20
214.141832
70
0
0
VERTEX
8
Layer 1
10
335.844940
20
214.141832
70
0
0
VERTEX
8
Layer 1
10
335.950230
20
221.143120
70
0
0
SEQEND
8
Layer 1
0
POLYLINE
8
Layer 1
62
7
70
0
10
0.000000
20
0.000000
66
1
0
VERTEX
8
Layer 1
10
372.698020
20
221.289620
70
0
0
VERTEX
8
Layer 1
10
366.433710
20
221.342260
70
0
0
VERTEX
8
Layer 1
10
366.433710
20
214.288332
70
0
0
VERTEX
8
Layer 1
10
372.592730
20
214.288332
70
0
0
VERTEX
8
Layer 1
10
372.698020
20
221.289620
70
0
0
SEQEND
8
Layer 1
0
POLYLINE
8
Layer 1
62
7
70
0
10
0.000000
20
0.000000
66
1
0
VERTEX
8
Layer 1
10
99.000786
20
261.624356
70
0
0
VERTEX
8
Layer 1
10
92.736474
20
261.676996
70
0
0
VERTEX
8
Layer 1
10
92.736474
20
254.623068
70
0
0
VERTEX
8
Layer 1
10
98.895499
20
254.623068
70
0
0
VERTEX
8
Layer 1
10
99.000786
20
261.624356
70
0
0
SEQEND
8
Layer 1
0
POLYLINE
8
Layer 1
62
7
70
0
10
0.000000
20
0.000000
66
1
0
VERTEX
8
Layer 1
10
135.090160
20
261.459547
70
0
0
VERTEX
8
Layer 1
10
128.825850
20
261.512187
70
0
0
VERTEX
8
Layer 1
10
128.825850
20
254.458259
70
0
0
VERTEX
8
Layer 1
10
134.984870
20
254.458259
70
0
0
VERTEX
8
Layer 1
10
135.090160
20
261.459547
70
0
0
SEQEND
8
Layer 1
0
POLYLINE
8
Layer 1
62
7
70
0
10
0.000000
20
0.000000
66
1
0
VERTEX
8
Layer 1
10
99.000775
20
221.672250
70
0
0
VERTEX
8
Layer 1
10
92.736466
20
221.724890
70
0
0
VERTEX
8
Layer 1
10
92.736466
20
214.670962
70
0
0
VERTEX
8
Layer 1
10
98.895494
20
214.670962
70
0
0
VERTEX
8
Layer 1
10
99.000775
20
221.672250
70
0
0
SEQEND
8
Layer 1
0
POLYLINE
8
Layer 1
62
7
70
0
10
0.000000
20
0.000000
66
1
0
VERTEX
8
Layer 1
10
135.090080
20
221.507441
70
0
0
VERTEX
8
Layer 1
10
128.825770
20
221.560081
70
0
0
VERTEX
8
Layer 1
10
128.825770
20
214.506153
70
0
0
VERTEX
8
Layer 1
10
134.984790
20
214.506153
70
0
0
VERTEX
8
Layer 1
10
135.090080
20
221.507441
70
0
0
SEQEND
8
Layer 1
0
POLYLINE
8
Layer 1
62
7
70
0
10
0.000000
20
0.000000
66
1
0
VERTEX
8
Layer 1
10
135.116040
20
197.960287
70
0
0
VERTEX
8
Layer 1
10
128.851730
20
198.012887
70
0
0
VERTEX
8
Layer 1
10
128.851730
20
190.958970
70
0
0
VERTEX
8
Layer 1
10
135.010760
20
190.958970
70
0
0
VERTEX
8
Layer 1
10
135.116040
20
197.960287
70
0
0
SEQEND
8
Layer 1
0
POLYLINE
8
Layer 1
62
7
70
0
10
0.000000
20
0.000000
66
1
0
VERTEX
8
Layer 1
10
98.888589
20
198.001947
70
0
0
VERTEX
8
Layer 1
10
92.624280
20
198.054547
70
0
0
VERTEX
8
Layer 1
10
92.624280
20
191.000630
70
0
0
VERTEX
8
Layer 1
10
98.783308
20
191.000630
70
0
0
VERTEX
8
Layer 1
10
98.888589
20
198.001947
70
0
0
SEQEND
8
Layer 1
0
POLYLINE
8
Layer 1
62
7
70
0
10
0.000000
20
0.000000
66
1
0
VERTEX
8
Layer 1
10
98.596661
20
184.199230
70
0
0
VERTEX
8
Layer 1
10
98.544061
20
177.934920
70
0
0
VERTEX
8
Layer 1
10
105.597980
20
177.934920
70
0
0
VERTEX
8
Layer 1
10
105.597980
20
184.093950
70
0
0
VERTEX
8
Layer 1
10
98.596661
20
184.199230
70
0
0
SEQEND
8
Layer 1
0
POLYLINE
8
Layer 1
62
7
70
0
10
0.000000
20
0.000000
66
1
0
VERTEX
8
Layer 1
10
121.667880
20
184.564300
70
0
0
VERTEX
8
Layer 1
10
121.615280
20
178.299990
70
0
0
VERTEX
8
Layer 1
10
128.669200
20
178.299990
70
0
0
VERTEX
8
Layer 1
10
128.669200
20
184.459020
70
0
0
VERTEX
8
Layer 1
10
121.667880
20
184.564300
70
0
0
SEQEND
8
Layer 1
0
POLYLINE
8
Layer 1
62
7
70
0
10
0.000000
20
0.000000
66
1
0
VERTEX
8
Layer 1
10
98.572467
20
240.844854
70
0
0
VERTEX
8
Layer 1
10
92.308158
20
240.897454
70
0
0
VERTEX
8
Layer 1
10
92.308158
20
233.843534
70
0
0
VERTEX
8
Layer 1
10
98.467186
20
233.843534
70
0
0
VERTEX
8
Layer 1
10
98.572467
20
240.844854
70
0
0
SEQEND
8
Layer 1
0
POLYLINE
8
Layer 1
62
7
70
0
10
0.000000
20
0.000000
66
1
0
VERTEX
8
Layer 1
10
135.068030
20
240.706304
70
0
0
VERTEX
8
Layer 1
10
128.803720
20
240.758904
70
0
0
VERTEX
8
Layer 1
10
128.803720
20
233.704974
70
0
0
VERTEX
8
Layer 1
10
134.962750
20
233.704974
70
0
0
VERTEX
8
Layer 1
10
135.068030
20
240.706304
70
0
0
SEQEND
8
Layer 1
0
POLYLINE
8
Layer 1
62
7
70
0
10
0.000000
20
0.000000
66
1
0
VERTEX
8
Layer 1
10
161.169030
20
286.882820
70
0
0
VERTEX
8
Layer 1
10
184.226800
20
286.882820
70
0
0
VERTEX
8
Layer 1
10
184.168000
20
279.236114
70
0
0
VERTEX
8
Layer 1
10
190.932410
20
279.353757
70
0
0
VERTEX
8
Layer 1
10
191.108900
20
272.648184
70
0
0
VERTEX
8
Layer 1
10
184.226880
20
272.530543
70
0
0
VERTEX
8
Layer 1
10
183.932800
20
198.298673
70
0
0
VERTEX
8
Layer 1
10
190.961900
20
198.004570
70
0
0
VERTEX
8
Layer 1
10
190.697210
20
191.122530
70
0
0
VERTEX
8
Layer 1
10
183.815200
20
191.240180
70
0
0
VERTEX
8
Layer 1
10
183.756400
20
184.299320
70
0
0
VERTEX
8
Layer 1
10
160.933920
20
184.534600
70
0
0
VERTEX
8
Layer 1
10
160.933920
20
184.534600
70
0
0
VERTEX
8
Layer 1
10
160.933920
20
184.534600
70
0
0
VERTEX
8
Layer 1
10
161.198600
20
191.210760
70
0
0
VERTEX
8
Layer 1
10
154.441590
20
191.115160
70
0
0
VERTEX
8
Layer 1
10
154.474690
20
198.243509
70
0
0
VERTEX
8
Layer 1
10
161.331000
20
198.078074
70
0
0
VERTEX
8
Layer 1
10
160.992780
20
272.706985
70
0
0
VERTEX
8
Layer 1
10
154.654830
20
272.751105
70
0
0
VERTEX
8
Layer 1
10
154.669530
20
279.618435
70
0
0
VERTEX
8
Layer 1
10
161.051570
20
279.471382
70
0
0
VERTEX
8
Layer 1
10
161.169030
20
286.882820
70
0
0
SEQEND
8
Layer 1
0
POLYLINE
8
Layer 1
62
7
70
0
10
0.000000
20
0.000000
66
1
0
VERTEX
8
Layer 1
10
205.465540
20
286.775584
70
0
0
VERTEX
8
Layer 1
10
228.523310
20
286.775584
70
0
0
VERTEX
8
Layer 1
10
228.464510
20
279.128878
70
0
0
VERTEX
8
Layer 1
10
235.228920
20
279.246521
70
0
0
VERTEX
8
Layer 1
10
235.405410
20
272.540948
70
0
0
VERTEX
8
Layer 1
10
228.523390
20
272.423307
70
0
0
VERTEX
8
Layer 1
10
228.229310
20
198.191437
70
0
0
VERTEX
8
Layer 1
10
235.258410
20
197.897334
70
0
0
VERTEX
8
Layer 1
10
234.993720
20
191.015290
70
0
0
VERTEX
8
Layer 1
10
228.111710
20
191.132940
70
0
0
VERTEX
8
Layer 1
10
228.052910
20
184.192080
70
0
0
VERTEX
8
Layer 1
10
205.230430
20
184.427360
70
0
0
VERTEX
8
Layer 1
10
205.230430
20
184.427360
70
0
0
VERTEX
8
Layer 1
10
205.230430
20
184.427360
70
0
0
VERTEX
8
Layer 1
10
205.495110
20
191.103520
70
0
0
VERTEX
8
Layer 1
10
198.738100
20
191.007920
70
0
0
VERTEX
8
Layer 1
10
198.771200
20
198.136273
70
0
0
VERTEX
8
Layer 1
10
205.627510
20
197.970838
70
0
0
VERTEX
8
Layer 1
10
205.289290
20
272.599749
70
0
0
VERTEX
8
Layer 1
10
198.951340
20
272.643869
70
0
0
VERTEX
8
Layer 1
10
198.966040
20
279.511199
70
0
0
VERTEX
8
Layer 1
10
205.348080
20
279.364146
70
0
0
VERTEX
8
Layer 1
10
205.465540
20
286.775584
70
0
0
SEQEND
8
Layer 1
0
POLYLINE
8
Layer 1
62
7
70
0
10
0.000000
20
0.000000
66
1
0
VERTEX
8
Layer 1
10
10.117180
20
158.653440
70
0
0
VERTEX
8
Layer 1
10
10.117180
20
135.830960
70
0
0
VERTEX
8
Layer 1
10
27.145806
20
135.830960
70
0
0
VERTEX
8
Layer 1
10
27.234036
20
128.772460
70
0
0
VERTEX
8
Layer 1
10
33.674915
20
128.772460
70
0
0
VERTEX
8
Layer 1
10
33.763145
20
135.830960
70
0
0
VERTEX
8
Layer 1
10
50.085922
20
135.830960
70
0
0
VERTEX
8
Layer 1
10
50.409435
20
128.772460
70
0
0
VERTEX
8
Layer 1
10
57.041482
20
128.772460
70
0
0
VERTEX
8
Layer 1
10
56.850315
20
135.830960
70
0
0
VERTEX
8
Layer 1
10
74.820074
20
135.830960
70
0
0
VERTEX
8
Layer 1
10
74.820074
20
158.653440
70
0
0
VERTEX
8
Layer 1
10
57.085602
20
158.653440
70
0
0
VERTEX
8
Layer 1
10
57.159132
20
165.359010
70
0
0
VERTEX
8
Layer 1
10
49.938877
20
165.476650
70
0
0
VERTEX
8
Layer 1
10
49.850647
20
158.653440
70
0
0
VERTEX
8
Layer 1
10
33.527870
20
158.418160
70
0
0
VERTEX
8
Layer 1
10
33.439640
20
165.241370
70
0
0
VERTEX
8
Layer 1
10
27.469327
20
165.241370
70
0
0
VERTEX
8
Layer 1
10
27.145813
20
158.653440
70
0
0
VERTEX
8
Layer 1
10
10.117180
20
158.653440
70
0
0
SEQEND
8
Layer 1
0
POLYLINE
8
Layer 1
62
7
70
0
10
0.000000
20
0.000000
66
1
0
VERTEX
8
Layer 1
10
92.231039
20
292.764901
70
0
0
VERTEX
8
Layer 1
10
78.349326
20
292.764901
70
0
0
VERTEX
8
Layer 1
10
92.231039
20
292.764901
70
0
0
SEQEND
8
Layer 1
0
POLYLINE
8
Layer 1
62
7
70
0
10
0.000000
20
0.000000
66
1
0
VERTEX
8
Layer 1
10
78.349328
20
240.296733
70
0
0
VERTEX
8
Layer 1
10
78.584612
20
213.003874
70
0
0
VERTEX
8
Layer 1
10
78.349328
20
240.296733
70
0
0
SEQEND
8
Layer 1
0
POLYLINE
8
Layer 1
62
7
70
0
10
0.000000
20
0.000000
66
1
0
VERTEX
8
Layer 1
10
154.416150
20
240.584893
70
0
0
VERTEX
8
Layer 1
10
154.651430
20
213.292034
70
0
0
VERTEX
8
Layer 1
10
154.416150
20
240.584893
70
0
0
SEQEND
8
Layer 1
0
POLYLINE
8
Layer 1
62
7
70
0
10
0.000000
20
0.000000
66
1
0
VERTEX
8
Layer 1
10
10.116280
20
286.903385
70
0
0
VERTEX
8
Layer 1
10
74.836228
20
286.951645
70
0
0
VERTEX
8
Layer 1
10
75.203868
20
248.083058
70
0
0
VERTEX
8
Layer 1
10
70.395278
20
247.800926
70
0
0
VERTEX
8
Layer 1
10
70.424678
20
241.119298
70
0
0
VERTEX
8
Layer 1
10
75.395058
20
241.260885
70
0
0
VERTEX
8
Layer 1
10
75.189208
20
211.286214
70
0
0
VERTEX
8
Layer 1
10
70.512978
20
211.898368
70
0
0
VERTEX
8
Layer 1
10
70.542378
20
205.922590
70
0
0
VERTEX
8
Layer 1
10
75.042188
20
205.828890
70
0
0
VERTEX
8
Layer 1
10
75.071588
20
184.559710
70
0
0
VERTEX
8
Layer 1
10
75.019888
20
172.303280
70
0
0
VERTEX
8
Layer 1
10
10.055846
20
172.292380
70
0
0
VERTEX
8
Layer 1
10
10.029986
20
184.516260
70
0
0
VERTEX
8
Layer 1
10
9.698603
20
206.113217
70
0
0
VERTEX
8
Layer 1
10
15.144914
20
206.395048
70
0
0
VERTEX
8
Layer 1
10
14.944431
20
212.088394
70
0
0
VERTEX
8
Layer 1
10
9.837791
20
212.181494
70
0
0
VERTEX
8
Layer 1
10
9.741691
20
241.072243
70
0
0
VERTEX
8
Layer 1
10
14.847090
20
240.977873
70
0
0
VERTEX
8
Layer 1
10
14.776260
20
247.942003
70
0
0
VERTEX
8
Layer 1
10
9.928929
20
247.988553
70
0
0
VERTEX
8
Layer 1
10
10.116280
20
286.903385
70
0
0
SEQEND
8
Layer 1
0
POLYLINE
8
Layer 1
62
7
70
0
10
0.000000
20
0.000000
66
1
0
VERTEX
8
Layer 1
10
27.118131
20
279.646949
70
0
0
VERTEX
8
Layer 1
10
20.853822
20
279.699589
70
0
0
VERTEX
8
Layer 1
10
20.853822
20
272.645661
70
0
0
VERTEX
8
Layer 1
10
27.012850
20
272.645661
70
0
0
VERTEX
8
Layer 1
10
27.118131
20
279.646949
70
0
0
SEQEND
8
Layer 1
0
POLYLINE
8
Layer 1
62
7
70
0
10
0.000000
20
0.000000
66
1
0
VERTEX
8
Layer 1
10
63.207358
20
279.482140
70
0
0
VERTEX
8
Layer 1
10
56.943048
20
279.534780
70
0
0
VERTEX
8
Layer 1
10
56.943048
20
272.480852
70
0
0
VERTEX
8
Layer 1
10
63.102068
20
272.480852
70
0
0
VERTEX
8
Layer 1
10
63.207358
20
279.482140
70
0
0
SEQEND
8
Layer 1
0
POLYLINE
8
Layer 1
62
7
70
0
10
0.000000
20
0.000000
66
1
0
VERTEX
8
Layer 1
10
63.162168
20
198.368010
70
0
0
VERTEX
8
Layer 1
10
56.897858
20
198.420610
70
0
0
VERTEX
8
Layer 1
10
56.897858
20
191.366700
70
0
0
VERTEX
8
Layer 1
10
63.056888
20
191.366700
70
0
0
VERTEX
8
Layer 1
10
63.162168
20
198.368010
70
0
0
SEQEND
8
Layer 1
0
POLYLINE
8
Layer 1
62
7
70
0
10
0.000000
20
0.000000
66
1
0
VERTEX
8
Layer 1
10
26.934717
20
198.409670
70
0
0
VERTEX
8
Layer 1
10
20.670408
20
198.462270
70
0
0
VERTEX
8
Layer 1
10
20.670408
20
191.408360
70
0
0
VERTEX
8
Layer 1
10
26.829436
20
191.408360
70
0
0
VERTEX
8
Layer 1
10
26.934717
20
198.409670
70
0
0
SEQEND
8
Layer 1
0
POLYLINE
8
Layer 1
62
7
70
0
10
0.000000
20
0.000000
66
1
0
VERTEX
8
Layer 1
10
26.642789
20
184.606960
70
0
0
VERTEX
8
Layer 1
10
26.590189
20
178.342650
70
0
0
VERTEX
8
Layer 1
10
33.644108
20
178.342650
70
0
0
VERTEX
8
Layer 1
10
33.644108
20
184.501680
70
0
0
VERTEX
8
Layer 1
10
26.642789
20
184.606960
70
0
0
SEQEND
8
Layer 1
0
POLYLINE
8
Layer 1
62
7
70
0
10
0.000000
20
0.000000
66
1
0
VERTEX
8
Layer 1
10
49.714008
20
184.972030
70
0
0
VERTEX
8
Layer 1
10
49.661408
20
178.707720
70
0
0
VERTEX
8
Layer 1
10
56.715328
20
178.707720
70
0
0
VERTEX
8
Layer 1
10
56.715328
20
184.866750
70
0
0
VERTEX
8
Layer 1
10
49.714008
20
184.972030
70
0
0
SEQEND
8
Layer 1
0
POLYLINE
8
Layer 1
62
7
70
0
10
0.000000
20
0.000000
66
1
0
VERTEX
8
Layer 1
10
26.618595
20
241.252577
70
0
0
VERTEX
8
Layer 1
10
20.354286
20
241.305177
70
0
0
VERTEX
8
Layer 1
10
20.354286
20
234.251257
70
0
0
VERTEX
8
Layer 1
10
26.513314
20
234.251257
70
0
0
VERTEX
8
Layer 1
10
26.618595
20
241.252577
70
0
0
SEQEND
8
Layer 1
0
POLYLINE
8
Layer 1
62
7
70
0
10
0.000000
20
0.000000
66
1
0
VERTEX
8
Layer 1
10
63.114158
20
241.114027
70
0
0
VERTEX
8
Layer 1
10
56.849848
20
241.166627
70
0
0
VERTEX
8
Layer 1
10
56.849848
20
234.112697
70
0
0
VERTEX
8
Layer 1
10
63.008878
20
234.112697
70
0
0
VERTEX
8
Layer 1
10
63.114158
20
241.114027
70
0
0
SEQEND
8
Layer 1
0
POLYLINE
8
Layer 1
62
7
70
0
10
0.000000
20
0.000000
66
1
0
VERTEX
8
Layer 1
10
86.584241
20
165.476660
70
0
0
VERTEX
8
Layer 1
10
78.349328
20
165.711940
70
0
0
VERTEX
8
Layer 1
10
78.349328
20
158.653440
70
0
0
VERTEX
8
Layer 1
10
78.349328
20
129.007750
70
0
0
VERTEX
8
Layer 1
10
87.054808
20
129.007750
70
0
0
VERTEX
8
Layer 1
10
86.819525
20
136.066250
70
0
0
VERTEX
8
Layer 1
10
93.172173
20
136.066250
70
0
0
VERTEX
8
Layer 1
10
92.936890
20
158.653440
70
0
0
VERTEX
8
Layer 1
10
86.348958
20
158.653440
70
0
0
VERTEX
8
Layer 1
10
86.584241
20
165.476660
70
0
0
SEQEND
8
Layer 1
0
POLYLINE
8
Layer 1
62
7
70
0
10
0.000000
20
0.000000
66
1
0
VERTEX
8
Layer 1
10
126.842820
20
164.922930
70
0
0
VERTEX
8
Layer 1
10
118.607910
20
165.158210
70
0
0
VERTEX
8
Layer 1
10
118.607910
20
158.099710
70
0
0
VERTEX
8
Layer 1
10
118.607910
20
128.454020
70
0
0
VERTEX
8
Layer 1
10
127.313390
20
128.454020
70
0
0
VERTEX
8
Layer 1
10
127.078110
20
135.512520
70
0
0
VERTEX
8
Layer 1
10
133.430750
20
135.512520
70
0
0
VERTEX
8
Layer 1
10
133.195470
20
158.099710
70
0
0
VERTEX
8
Layer 1
10
126.607540
20
158.099710
70
0
0
VERTEX
8
Layer 1
10
126.842820
20
164.922930
70
0
0
SEQEND
8
Layer 1
0
POLYLINE
8
Layer 1
62
7
70
0
10
0.000000
20
0.000000
66
1
0
VERTEX
8
Layer 1
10
147.860330
20
165.453860
70
0
0
VERTEX
8
Layer 1
10
139.625420
20
165.689140
70
0
0
VERTEX
8
Layer 1
10
139.625420
20
158.630640
70
0
0
VERTEX
8
Layer 1
10
139.625420
20
128.984950
70
0
0
VERTEX
8
Layer 1
10
148.330900
20
128.984950
70
0
0
VERTEX
8
Layer 1
10
148.095620
20
136.043450
70
0
0
VERTEX
8
Layer 1
10
154.448260
20
136.043450
70
0
0
VERTEX
8
Layer 1
10
154.212980
20
158.630640
70
0
0
VERTEX
8
Layer 1
10
147.625050
20
158.630640
70
0
0
VERTEX
8
Layer 1
10
147.860330
20
165.453860
70
0
0
SEQEND
8
Layer 1
0
POLYLINE
8
Layer 1
62
7
70
0
10
0.000000
20
0.000000
66
1
0
VERTEX
8
Layer 1
10
106.673230
20
165.189280
70
0
0
VERTEX
8
Layer 1
10
98.438324
20
165.424560
70
0
0
VERTEX
8
Layer 1
10
98.438324
20
158.366060
70
0
0
VERTEX
8
Layer 1
10
98.438324
20
128.720370
70
0
0
VERTEX
8
Layer 1
10
107.143800
20
128.720370
70
0
0
VERTEX
8
Layer 1
10
106.908520
20
135.778870
70
0
0
VERTEX
8
Layer 1
10
113.261170
20
135.778870
70
0
0
VERTEX
8
Layer 1
10
113.025880
20
158.366060
70
0
0
VERTEX
8
Layer 1
10
106.437950
20
158.366060
70
0
0
VERTEX
8
Layer 1
10
106.673230
20
165.189280
70
0
0
SEQEND
8
Layer 1
0
POLYLINE
8
Layer 1
62
7
70
0
10
0.000000
20
0.000000
66
1
0
VERTEX
8
Layer 1
10
234.106850
20
261.472227
70
0
0
VERTEX
8
Layer 1
10
234.106850
20
254.649012
70
0
0
VERTEX
8
Layer 1
10
238.577230
20
254.649012
70
0
0
VERTEX
8
Layer 1
10
238.341950
20
221.474072
70
0
0
VERTEX
8
Layer 1
10
234.342130
20
221.474072
70
0
0
VERTEX
8
Layer 1
10
234.342130
20
214.415573
70
0
0
VERTEX
8
Layer 1
10
238.577230
20
214.415573
70
0
0
VERTEX
8
Layer 1
10
238.341950
20
191.593100
70
0
0
VERTEX
8
Layer 1
10
238.341950
20
191.122530
70
0
0
SEQEND
8
Layer 1
0
POLYLINE
8
Layer 1
62
7
70
0
10
0.000000
20
0.000000
66
1
0
VERTEX
8
Layer 1
10
278.287390
20
261.460582
70
0
0
VERTEX
8
Layer 1
10
278.287390
20
254.637367
70
0
0
VERTEX
8
Layer 1
10
282.757770
20
254.637367
70
0
0
VERTEX
8
Layer 1
10
282.522490
20
221.462427
70
0
0
VERTEX
8
Layer 1
10
278.522670
20
221.462427
70
0
0
VERTEX
8
Layer 1
10
278.522670
20
214.403928
70
0
0
VERTEX
8
Layer 1
10
282.757770
20
214.403928
70
0
0
VERTEX
8
Layer 1
10
282.522490
20
191.581460
70
0
0
VERTEX
8
Layer 1
10
282.522490
20
191.110890
70
0
0
SEQEND
8
Layer 1
0
POLYLINE
8
Layer 1
62
7
70
0
10
0.000000
20
0.000000
66
1
0
VERTEX
8
Layer 1
10
238.106660
20
286.647536
70
0
0
VERTEX
8
Layer 1
10
268.222920
20
286.882819
70
0
0
VERTEX
8
Layer 1
10
238.106660
20
286.647536
70
0
0
SEQEND
8
Layer 1
0
POLYLINE
8
Layer 1
62
7
70
0
10
0.000000
20
0.000000
66
1
0
VERTEX
8
Layer 1
10
238.341950
20
191.593100
70
0
0
VERTEX
8
Layer 1
10
265.164250
20
191.122530
70
0
0
VERTEX
8
Layer 1
10
268.222910
20
191.357810
70
0
0
VERTEX
8
Layer 1
10
268.222910
20
214.650857
70
0
0
VERTEX
8
Layer 1
10
273.869730
20
214.650857
70
0
0
VERTEX
8
Layer 1
10
273.869730
20
221.709355
70
0
0
VERTEX
8
Layer 1
10
268.222910
20
221.474072
70
0
0
VERTEX
8
Layer 1
10
267.987640
20
254.413728
70
0
0
VERTEX
8
Layer 1
10
272.928580
20
254.413728
70
0
0
VERTEX
8
Layer 1
10
272.928580
20
261.707510
70
0
0
VERTEX
8
Layer 1
10
268.222910
20
261.942793
70
0
0
VERTEX
8
Layer 1
10
267.987640
20
279.589038
70
0
0
VERTEX
8
Layer 1
10
238.341950
20
279.589038
70
0
0
VERTEX
8
Layer 1
10
238.341950
20
261.236943
70
0
0
VERTEX
8
Layer 1
10
234.106850
20
261.236943
70
0
0
VERTEX
8
Layer 1
10
234.812700
20
261.472227
70
0
0
VERTEX
8
Layer 1
10
234.106850
20
261.236943
70
0
0
SEQEND
8
Layer 1
0
POLYLINE
8
Layer 1
62
7
70
0
10
0.000000
20
0.000000
66
1
0
VERTEX
8
Layer 1
10
282.813980
20
191.779410
70
0
0
VERTEX
8
Layer 1
10
309.636280
20
191.308840
70
0
0
VERTEX
8
Layer 1
10
312.694940
20
191.544120
70
0
0
VERTEX
8
Layer 1
10
312.694940
20
214.837168
70
0
0
VERTEX
8
Layer 1
10
318.341760
20
214.837168
70
0
0
VERTEX
8
Layer 1
10
318.341760
20
221.895668
70
0
0
VERTEX
8
Layer 1
10
312.694940
20
221.660378
70
0
0
VERTEX
8
Layer 1
10
312.459670
20
254.600037
70
0
0
VERTEX
8
Layer 1
10
317.400610
20
254.600037
70
0
0
VERTEX
8
Layer 1
10
317.400610
20
261.893819
70
0
0
VERTEX
8
Layer 1
10
312.694940
20
262.129102
70
0
0
VERTEX
8
Layer 1
10
312.459670
20
279.775347
70
0
0
VERTEX
8
Layer 1
10
282.813980
20
279.775347
70
0
0
VERTEX
8
Layer 1
10
282.813980
20
261.423252
70
0
0
VERTEX
8
Layer 1
10
278.578880
20
261.423252
70
0
0
VERTEX
8
Layer 1
10
279.284730
20
261.658536
70
0
0
VERTEX
8
Layer 1
10
278.578880
20
261.423252
70
0
0
SEQEND
8
Layer 1
0
POLYLINE
8
Layer 1
62
7
70
1
10
0.000000
20
0.000000
66
1
0
VERTEX
8
Layer 1
10
86.584241
20
291.117918
70
0
0
VERTEX
8
Layer 1
10
142.111090
20
291.353202
70
0
0
VERTEX
8
Layer 1
10
86.584241
20
291.117918
70
0
0
SEQEND
8
Layer 1
0
POLYLINE
8
Layer 1
62
7
70
1
10
0.000000
20
0.000000
66
1
0
VERTEX
8
Layer 1
10
323.516110
20
286.811778
70
0
0
VERTEX
8
Layer 1
10
379.042960
20
287.047060
70
0
0
VERTEX
8
Layer 1
10
323.516110
20
286.811778
70
0
0
SEQEND
8
Layer 1
0
POLYLINE
8
Layer 1
62
7
70
1
10
0.000000
20
0.000000
66
1
0
VERTEX
8
Layer 1
10
323.514480
20
279.353755
70
0
0
VERTEX
8
Layer 1
10
323.514480
20
191.357810
70
0
0
VERTEX
8
Layer 1
10
379.511900
20
191.122530
70
0
0
VERTEX
8
Layer 1
10
379.511900
20
279.589038
70
0
0
VERTEX
8
Layer 1
10
323.514480
20
279.353755
70
0
0
SEQEND
8
Layer 1
0
POLYLINE
8
Layer 1
62
7
70
0
10
0.000000
20
0.000000
66
1
0
VERTEX
8
Layer 1
10
336.455070
20
283.588854
70
0
0
VERTEX
8
Layer 1
10
366.100760
20
283.588854
70
0
0
VERTEX
8
Layer 1
10
336.455070
20
283.588854
70
0
0
SEQEND
8
Layer 1
 0 
ENDSEC
 0 
EOF