<?xml version="1.0" encoding="UTF-8" standalone="no"?>
<!-- Created with Inkscape (http://www.inkscape.org/) -->

<svg
   width="210mm"
   height="297mm"
   viewBox="0 0 210 297"
   version="1.1"
   id="svg1"
   sodipodi:docname="mashiniuks1.svg"
   inkscape:version="1.4.2 (ebf0e940d0, 2025-05-08)"
   xmlns:inkscape="http://www.inkscape.org/namespaces/inkscape"
   xmlns:sodipodi="http://sodipodi.sourceforge.net/DTD/sodipodi-0.dtd"
   xmlns="http://www.w3.org/2000/svg"
   xmlns:svg="http://www.w3.org/2000/svg">
  <sodipodi:namedview
     id="namedview1"
     pagecolor="#ffffff"
     bordercolor="#666666"
     borderopacity="1.0"
     inkscape:showpageshadow="2"
     inkscape:pageopacity="0.0"
     inkscape:pagecheckerboard="0"
     inkscape:deskcolor="#d1d1d1"
     inkscape:document-units="mm"
     showguides="true"
     inkscape:zoom="1.124531"
     inkscape:cx="644.71321"
     inkscape:cy="383.71552"
     inkscape:window-width="1854"
     inkscape:window-height="1026"
     inkscape:window-x="30"
     inkscape:window-y="38"
     inkscape:window-maximized="1"
     inkscape:current-layer="layer1">
    <sodipodi:guide
       position="-114.42699,286.79632"
       orientation="0,-1"
       id="guide1"
       inkscape:locked="false" />
    <sodipodi:guide
       position="10.352464,148.30097"
       orientation="1,0"
       id="guide2"
       inkscape:locked="false" />
    <sodipodi:guide
       position="74.993333,314.60681"
       orientation="1,0"
       id="guide3"
       inkscape:locked="false" />
    <sodipodi:guide
       position="17.335547,184.5338"
       orientation="0,-1"
       id="guide4"
       inkscape:locked="false" />
    <sodipodi:guide
       position="42.402962,314.83936"
       orientation="1,0"
       id="guide5"
       inkscape:locked="false" />
    <sodipodi:guide
       position="27.258436,305.55658"
       orientation="1,0"
       id="guide6"
       inkscape:locked="false" />
    <sodipodi:guide
       position="57.027165,302.62541"
       orientation="1,0"
       id="guide7"
       inkscape:locked="false" />
    <sodipodi:guide
       position="-11.403982,279.56735"
       orientation="0,-1"
       id="guide8"
       inkscape:locked="false" />
    <sodipodi:guide
       position="1.2136589,191.22349"
       orientation="0,-1"
       id="guide9"
       inkscape:locked="false" />
    <sodipodi:guide
       position="-1.2985139,272.56858"
       orientation="0,-1"
       id="guide10"
       inkscape:locked="false" />
    <sodipodi:guide
       position="-17.276307,198.28221"
       orientation="0,-1"
       id="guide11"
       inkscape:locked="false" />
    <sodipodi:guide
       position="44.546127,240.59389"
       orientation="0,-1"
       id="guide12"
       inkscape:locked="false" />
    <sodipodi:guide
       position="183.83303,291.32913"
       orientation="1,0"
       id="guide13"
       inkscape:locked="false" />
    <sodipodi:guide
       position="161.16904,280.05961"
       orientation="1,0"
       id="guide14"
       inkscape:locked="false" />
    <sodipodi:guide
       position="78.196157,172.48879"
       orientation="0,-1"
       id="guide15"
       inkscape:locked="false" />
    <sodipodi:guide
       position="81.728895,234.3798"
       orientation="1,0"
       id="guide16"
       inkscape:locked="false" />
    <sodipodi:guide
       position="147.08725,228.82871"
       orientation="1,0"
       id="guide17"
       inkscape:locked="false" />
    <sodipodi:guide
       position="98.714339,206.41432"
       orientation="1,0"
       id="guide18"
       inkscape:locked="false" />
    <sodipodi:guide
       position="128.58143,213.34929"
       orientation="1,0"
       id="guide19"
       inkscape:locked="false" />
    <sodipodi:guide
       position="35.565218,158.58941"
       orientation="0,-1"
       id="guide20"
       inkscape:locked="false" />
    <sodipodi:guide
       position="2.588116,135.83096"
       orientation="0,-1"
       id="guide21"
       inkscape:locked="false" />
    <sodipodi:guide
       position="33.717769,172.66812"
       orientation="1,0"
       id="guide22"
       inkscape:locked="false" />
    <sodipodi:guide
       position="57.142584,177.32528"
       orientation="1,0"
       id="guide23"
       inkscape:locked="false" />
    <sodipodi:guide
       position="50.106711,173.43463"
       orientation="1,0"
       id="guide24"
       inkscape:locked="false" />
    <sodipodi:guide
       position="76.937629,205.47481"
       orientation="0,-1"
       id="guide25"
       inkscape:locked="false" />
    <sodipodi:guide
       position="91.92536,211.62722"
       orientation="0,-1"
       id="guide26"
       inkscape:locked="false" />
    <sodipodi:guide
       position="101.59547,247.53359"
       orientation="0,-1"
       id="guide27"
       inkscape:locked="false" />
    <sodipodi:guide
       position="86.617184,217.49672"
       orientation="1,0"
       id="guide28"
       inkscape:locked="false" />
    <sodipodi:guide
       position="70.729216,229.43168"
       orientation="1,0"
       id="guide29"
       inkscape:locked="false" />
    <sodipodi:guide
       position="142.5574,222.05235"
       orientation="1,0"
       id="guide30"
       inkscape:locked="false" />
    <sodipodi:guide
       position="-5.7726757,165.41666"
       orientation="0,-1"
       id="guide31"
       inkscape:locked="false" />
    <sodipodi:guide
       position="22.347027,128.74396"
       orientation="0,-1"
       id="guide32"
       inkscape:locked="false" />
    <sodipodi:guide
       position="92.529107,191.34899"
       orientation="1,0"
       id="guide33"
       inkscape:locked="false" />
    <sodipodi:guide
       position="137.33074,261.53903"
       orientation="0,-1"
       id="guide34"
       inkscape:locked="false" />
    <sodipodi:guide
       position="131.24079,254.40135"
       orientation="0,-1"
       id="guide35"
       inkscape:locked="false" />
    <sodipodi:guide
       position="131.10479,221.45577"
       orientation="0,-1"
       id="guide36"
       inkscape:locked="false" />
    <sodipodi:guide
       position="131.69863,214.4156"
       orientation="0,-1"
       id="guide37"
       inkscape:locked="false" />
    <sodipodi:guide
       position="238.56878,242.95774"
       orientation="1,0"
       id="guide38"
       inkscape:locked="false" />
    <sodipodi:guide
       position="268.06959,214.64878"
       orientation="1,0"
       id="guide39"
       inkscape:locked="false" />
    <sodipodi:guide
       position="323.64543,261.76775"
       orientation="1,0"
       id="guide41"
       inkscape:locked="false" />
    <sodipodi:guide
       position="379.72237,325.88149"
       orientation="1,0"
       id="guide42"
       inkscape:locked="false" />
    <sodipodi:guide
       position="336.10577,299.57614"
       orientation="1,0"
       id="guide43"
       inkscape:locked="false" />
    <sodipodi:guide
       position="366.19781,289.95268"
       orientation="1,0"
       id="guide44"
       inkscape:locked="false" />
  </sodipodi:namedview>
  <defs
     id="defs1" />
  <g
     inkscape:label="Layer 1"
     inkscape:groupmode="layer"
     id="layer1">
    <path
       style="fill:none;stroke:#000000;stroke-width:0.265293px;stroke-linecap:butt;stroke-linejoin:miter;stroke-opacity:1"
       d="m 82.070152,10.504338 64.719948,-0.04826 0.36764,38.868587 -4.80859,0.282132 0.0294,6.681628 4.97038,-0.141587 -0.20585,29.268822 -4.67623,0.09369 0.0294,5.975778 4.49981,0.0937 0.0294,21.269187 -0.0517,12.25643 -64.964042,0.0109 -0.02586,-12.22388 -0.331383,-21.596964 5.446311,-0.281831 -0.200483,-5.693346 -5.10664,-0.0931 -0.0961,-28.890749 5.105399,0.09437 -0.07083,-6.96413 -4.847331,-0.04655 z"
       id="path3-6"
       sodipodi:nodetypes="ccccccccccccccccccccccc" />
    <path
       style="fill:none;stroke:#000000;stroke-width:0.264583px;stroke-linecap:butt;stroke-linejoin:miter;stroke-opacity:1"
       d="m 99.072003,17.760774 -6.264309,-0.05264 v 7.053928 h 6.159028 z"
       id="path11-12" />
    <path
       style="fill:none;stroke:#000000;stroke-width:0.264583px;stroke-linecap:butt;stroke-linejoin:miter;stroke-opacity:1"
       d="m 135.16123,17.925583 -6.26431,-0.05264 v 7.053928 h 6.15902 z"
       id="path11-3-9" />
    <path
       style="fill:none;stroke:#000000;stroke-width:0.264583px;stroke-linecap:butt;stroke-linejoin:miter;stroke-opacity:1"
       d="m 335.85262,35.523014 -6.26431,-0.05264 v 7.053928 h 6.15902 z"
       id="path11-3-9-0" />
    <path
       style="fill:none;stroke:#000000;stroke-width:0.264583px;stroke-linecap:butt;stroke-linejoin:miter;stroke-opacity:1"
       d="m 372.31535,35.640214 -6.26431,-0.05264 v 7.053928 h 6.15902 z"
       id="path11-3-9-0-5" />
    <path
       style="fill:none;stroke:#000000;stroke-width:0.264583px;stroke-linecap:butt;stroke-linejoin:miter;stroke-opacity:1"
       d="m 335.95023,75.85688 -6.26431,-0.05264 v 7.053928 h 6.15902 z"
       id="path11-3-9-0-4" />
    <path
       style="fill:none;stroke:#000000;stroke-width:0.264583px;stroke-linecap:butt;stroke-linejoin:miter;stroke-opacity:1"
       d="m 372.69802,75.71038 -6.26431,-0.05264 v 7.053928 h 6.15902 z"
       id="path11-3-9-0-47" />
    <path
       style="fill:none;stroke:#000000;stroke-width:0.264583px;stroke-linecap:butt;stroke-linejoin:miter;stroke-opacity:1"
       d="m 99.000786,35.375644 -6.264312,-0.05264 v 7.053928 h 6.159025 z"
       id="path11-12-31" />
    <path
       style="fill:none;stroke:#000000;stroke-width:0.264583px;stroke-linecap:butt;stroke-linejoin:miter;stroke-opacity:1"
       d="m 135.09016,35.540453 -6.26431,-0.05264 v 7.053928 h 6.15902 z"
       id="path11-3-9-7" />
    <path
       style="fill:none;stroke:#000000;stroke-width:0.264583px;stroke-linecap:butt;stroke-linejoin:miter;stroke-opacity:1"
       d="m 99.000775,75.32775 -6.264309,-0.05264 v 7.053928 h 6.159028 z"
       id="path11-12-1" />
    <path
       style="fill:none;stroke:#000000;stroke-width:0.264583px;stroke-linecap:butt;stroke-linejoin:miter;stroke-opacity:1"
       d="m 135.09008,75.492559 -6.26431,-0.05264 v 7.053928 h 6.15902 z"
       id="path11-3-9-78" />
    <path
       style="fill:none;stroke:#000000;stroke-width:0.264583px;stroke-linecap:butt;stroke-linejoin:miter;stroke-opacity:1"
       d="m 135.11604,99.039713 -6.26431,-0.0526 v 7.053917 h 6.15903 z"
       id="path11-1-3" />
    <path
       style="fill:none;stroke:#000000;stroke-width:0.264583px;stroke-linecap:butt;stroke-linejoin:miter;stroke-opacity:1"
       d="m 98.888589,98.998053 -6.264309,-0.0526 v 7.053917 h 6.159028 z"
       id="path11-36-1" />
    <path
       style="fill:none;stroke:#000000;stroke-width:0.264583px;stroke-linecap:butt;stroke-linejoin:miter;stroke-opacity:1"
       d="m 98.596661,112.80077 -0.0526,6.26431 h 7.053919 v -6.15903 z"
       id="path11-36-1-1" />
    <path
       style="fill:none;stroke:#000000;stroke-width:0.264583px;stroke-linecap:butt;stroke-linejoin:miter;stroke-opacity:1"
       d="m 121.66788,112.4357 -0.0526,6.26431 h 7.05392 v -6.15903 z"
       id="path11-36-1-1-6" />
    <path
       style="fill:none;stroke:#000000;stroke-width:0.264583px;stroke-linecap:butt;stroke-linejoin:miter;stroke-opacity:1"
       d="m 98.572467,56.155146 -6.264309,-0.0526 v 7.05392 h 6.159028 z"
       id="path11-18-9" />
    <path
       style="fill:none;stroke:#000000;stroke-width:0.264583px;stroke-linecap:butt;stroke-linejoin:miter;stroke-opacity:1"
       d="m 135.06803,56.293696 -6.26431,-0.0526 v 7.05393 h 6.15903 z"
       id="path11-2-4" />
    <path
       style="fill:none;stroke:#000000;stroke-width:0.264583px;stroke-linecap:butt;stroke-linejoin:miter;stroke-opacity:1"
       d="m 161.16903,10.11718 h 23.05777 l -0.0588,7.646706 6.76441,-0.117643 0.17649,6.705573 -6.88202,0.117641 -0.29408,74.23187 7.0291,0.294103 -0.26469,6.88204 -6.88201,-0.11765 -0.0588,6.94086 -22.82248,-0.23528 v 0 0 l 0.26468,-6.67616 -6.75701,0.0956 0.0331,-7.128349 6.85631,0.165435 -0.33822,-74.628911 -6.33795,-0.04412 0.0147,-6.86733 6.38204,0.147053 z"
       id="path13"
       sodipodi:nodetypes="ccccccccccccccccccccccc" />
    <path
       style="fill:none;stroke:#000000;stroke-width:0.264583px;stroke-linecap:butt;stroke-linejoin:miter;stroke-opacity:1"
       d="m 205.46554,10.224416 h 23.05777 l -0.0588,7.646706 6.76441,-0.117643 0.17649,6.705573 -6.88202,0.117641 -0.29408,74.23187 7.0291,0.294103 -0.26469,6.882044 -6.88201,-0.11765 -0.0588,6.94086 -22.82248,-0.23528 v 0 0 l 0.26468,-6.67616 -6.75701,0.0956 0.0331,-7.128353 6.85631,0.165435 -0.33822,-74.628911 -6.33795,-0.04412 0.0147,-6.86733 6.38204,0.147053 z"
       id="path13-6"
       sodipodi:nodetypes="ccccccccccccccccccccccc" />
    <path
       style="fill:none;stroke:#000000;stroke-width:0.264583px;stroke-linecap:butt;stroke-linejoin:miter;stroke-opacity:1"
       d="m 10.11718,138.34656 v 22.82248 h 17.028626 l 0.08823,7.0585 h 6.440879 l 0.08823,-7.0585 h 16.322777 l 0.323513,7.0585 6.632047,0 -0.191167,-7.0585 H 74.820074 V 138.34656 H 57.085602 l 0.07353,-6.70557 -7.220255,-0.11764 -0.08823,6.82321 -16.322777,0.23528 -0.08823,-6.82321 h -5.970313 l -0.323514,6.58793 z"
       id="path21"
       sodipodi:nodetypes="ccccccccccccccccccccc" />
    <path
       style="fill:none;stroke:#000000;stroke-width:0.264583px;stroke-linecap:butt;stroke-linejoin:miter;stroke-opacity:1"
       d="m 92.231039,4.2350987 -13.881713,0 z"
       id="path24"
       sodipodi:nodetypes="ccc" />
    <path
       style="fill:none;stroke:#000000;stroke-width:0.264583px;stroke-linecap:butt;stroke-linejoin:miter;stroke-opacity:1"
       d="m 78.349328,56.703267 0.235284,27.292859 z"
       id="path25" />
    <path
       style="fill:none;stroke:#000000;stroke-width:0.264583px;stroke-linecap:butt;stroke-linejoin:miter;stroke-opacity:1"
       d="m 154.41615,56.415107 0.23528,27.292859 z"
       id="path25-8" />
    <path
       style="fill:none;stroke:#000000;stroke-width:0.265293px;stroke-linecap:butt;stroke-linejoin:miter;stroke-opacity:1"
       d="m 10.11628,10.096615 64.719948,-0.04826 0.36764,38.868587 -4.80859,0.282132 0.0294,6.681628 4.97038,-0.141587 -0.20585,29.974671 -4.67623,-0.612154 0.0294,5.975778 4.49981,0.0937 0.0294,21.26918 -0.0517,12.25643 -64.964042,0.0109 -0.02586,-12.22388 -0.3313827,-21.596957 5.4463107,-0.281831 -0.200483,-5.693346 -5.1066397,-0.0931 -0.0961,-28.890749 5.1053987,0.09437 -0.07083,-6.96413 -4.8473307,-0.04655 z"
       id="path3-6-6"
       sodipodi:nodetypes="ccccccccccccccccccccccc" />
    <path
       style="fill:none;stroke:#000000;stroke-width:0.264583px;stroke-linecap:butt;stroke-linejoin:miter;stroke-opacity:1"
       d="m 27.118131,17.353051 -6.264309,-0.05264 v 7.053928 h 6.159028 z"
       id="path11-12-3" />
    <path
       style="fill:none;stroke:#000000;stroke-width:0.264583px;stroke-linecap:butt;stroke-linejoin:miter;stroke-opacity:1"
       d="m 63.207358,17.51786 -6.26431,-0.05264 v 7.053928 h 6.15902 z"
       id="path11-3-9-9" />
    <path
       style="fill:none;stroke:#000000;stroke-width:0.264583px;stroke-linecap:butt;stroke-linejoin:miter;stroke-opacity:1"
       d="m 63.162168,98.63199 -6.26431,-0.0526 v 7.05391 h 6.15903 z"
       id="path11-1-3-4" />
    <path
       style="fill:none;stroke:#000000;stroke-width:0.264583px;stroke-linecap:butt;stroke-linejoin:miter;stroke-opacity:1"
       d="m 26.934717,98.59033 -6.264309,-0.0526 v 7.05391 h 6.159028 z"
       id="path11-36-1-8" />
    <path
       style="fill:none;stroke:#000000;stroke-width:0.264583px;stroke-linecap:butt;stroke-linejoin:miter;stroke-opacity:1"
       d="m 26.642789,112.39304 -0.0526,6.26431 h 7.053919 v -6.15903 z"
       id="path11-36-1-1-1" />
    <path
       style="fill:none;stroke:#000000;stroke-width:0.264583px;stroke-linecap:butt;stroke-linejoin:miter;stroke-opacity:1"
       d="m 49.714008,112.02797 -0.0526,6.26431 h 7.05392 v -6.15903 z"
       id="path11-36-1-1-6-2" />
    <path
       style="fill:none;stroke:#000000;stroke-width:0.264583px;stroke-linecap:butt;stroke-linejoin:miter;stroke-opacity:1"
       d="m 26.618595,55.747423 -6.264309,-0.0526 v 7.05392 h 6.159028 z"
       id="path11-18-9-9" />
    <path
       style="fill:none;stroke:#000000;stroke-width:0.264583px;stroke-linecap:butt;stroke-linejoin:miter;stroke-opacity:1"
       d="m 63.114158,55.885973 -6.26431,-0.0526 v 7.05393 h 6.15903 z"
       id="path11-2-4-3" />
    <path
       style="fill:none;stroke:#000000;stroke-width:0.264583px;stroke-linecap:butt;stroke-linejoin:miter;stroke-opacity:1"
       d="m 86.584241,131.52334 -8.234913,-0.23528 v 7.0585 29.64569 h 8.70548 l -0.235283,-7.0585 h 6.352648 L 92.93689,138.34656 h -6.587932 z"
       id="path32" />
    <path
       style="fill:none;stroke:#000000;stroke-width:0.264583px;stroke-linecap:butt;stroke-linejoin:miter;stroke-opacity:1"
       d="m 126.84282,132.07707 -8.23491,-0.23528 v 7.0585 29.64569 h 8.70548 l -0.23528,-7.0585 h 6.35264 l -0.23528,-22.58719 h -6.58793 z"
       id="path32-1" />
    <path
       style="fill:none;stroke:#000000;stroke-width:0.264583px;stroke-linecap:butt;stroke-linejoin:miter;stroke-opacity:1"
       d="m 147.86033,131.54614 -8.23491,-0.23528 v 7.0585 29.64569 h 8.70548 l -0.23528,-7.0585 h 6.35264 l -0.23528,-22.58719 h -6.58793 z"
       id="path32-4" />
    <path
       style="fill:none;stroke:#000000;stroke-width:0.264583px;stroke-linecap:butt;stroke-linejoin:miter;stroke-opacity:1"
       d="m 106.67323,131.81072 -8.234906,-0.23528 v 7.0585 29.64569 h 8.705476 l -0.23528,-7.0585 h 6.35265 l -0.23529,-22.58719 h -6.58793 z"
       id="path32-8" />
    <path
       style="fill:none;stroke:#000000;stroke-width:0.264583px;stroke-linecap:butt;stroke-linejoin:miter;stroke-opacity:1"
       d="m 234.10685,35.527773 v 6.823215 h 4.47038 l -0.23528,33.17494 h -3.99982 v 7.058499 h 4.2351 l -0.23528,22.822473 v 0.47057"
       id="path38" />
    <path
       style="fill:none;stroke:#000000;stroke-width:0.264583px;stroke-linecap:butt;stroke-linejoin:miter;stroke-opacity:1"
       d="m 278.28739,35.539418 v 6.823215 h 4.47038 l -0.23528,33.17494 h -3.99982 v 7.058499 h 4.2351 l -0.23528,22.822468 v 0.47057"
       id="path38-4" />
    <path
       style="fill:none;stroke:#000000;stroke-width:0.264583px;stroke-linecap:butt;stroke-linejoin:miter;stroke-opacity:1"
       d="m 238.10666,10.352464 30.11626,-0.235283 z"
       id="path39" />
    <path
       style="fill:none;stroke:#000000;stroke-width:0.264583px;stroke-linecap:butt;stroke-linejoin:miter;stroke-opacity:1"
       d="m 238.34195,105.4069 26.8223,0.47057 3.05866,-0.23528 V 82.349143 h 5.64682 v -7.058498 l -5.64682,0.235283 -0.23527,-32.939656 h 4.94094 V 35.29249 l -4.70567,-0.235283 -0.23527,-17.646245 h -29.64569 v 18.352095 h -4.2351 l 0.70585,-0.235284 -0.70585,0.235284"
       id="path40" />
    <path
       style="fill:none;stroke:#000000;stroke-width:0.264583px;stroke-linecap:butt;stroke-linejoin:miter;stroke-opacity:1"
       d="m 282.81398,105.22059 26.8223,0.47057 3.05866,-0.23528 V 82.162832 h 5.64682 v -7.0585 l -5.64682,0.23529 -0.23527,-32.939659 h 4.94094 v -7.293782 l -4.70567,-0.235283 -0.23527,-17.646245 h -29.64569 v 18.352095 h -4.2351 l 0.70585,-0.235284 -0.70585,0.235284"
       id="path40-3" />
    <path
       style="fill:none;stroke:#000000;stroke-width:0.264583px;stroke-linecap:butt;stroke-linejoin:miter;stroke-opacity:1"
       d="M 86.584241,5.8820817 142.11109,5.6467983 Z"
       id="path41" />
    <path
       style="fill:none;stroke:#000000;stroke-width:0.264583px;stroke-linecap:butt;stroke-linejoin:miter;stroke-opacity:1"
       d="M 323.51611,10.188222 379.04296,9.9529395 Z"
       id="path41-7" />
    <path
       style="fill:none;stroke:#000000;stroke-width:0.264583px;stroke-linecap:butt;stroke-linejoin:miter;stroke-opacity:1"
       d="m 323.51448,17.646245 v 87.995945 l 55.99742,0.23528 V 17.410962 Z"
       id="path42" />
    <path
       style="fill:none;stroke:#000000;stroke-width:0.264583px;stroke-linecap:butt;stroke-linejoin:miter;stroke-opacity:1"
       d="m 336.45507,13.411146 h 29.64569 z"
       id="path43" />
  </g>
</svg>
